<svg xmlns="http://www.w3.org/2000/svg" width="5568" height="360"><svg width="64" height="64" viewBox="0 0 64 64"><path fill="#2e2f42" d="M61.546 44.195 44.66 27.185l1.874-9.231c.484.189.998.288 1.517.291h.013a4.319 4.319 0 1 0-4.018-2.871l-9.92 1.211L17.945.319a1.063 1.063 0 0 0-.753-.32c-.28.001-.548.113-.747.31L13.42 3.317a1.067 1.067 0 0 0 0 1.508l1.628 1.651a29.885 29.885 0 0 0 5.039 35.326.99.99 0 0 0 .292.195 6.276 6.276 0 0 0-.105 1.094v12.373h-12.8a5.339 5.339 0 0 0-5.333 5.333v2.133c0 .589.478 1.067 1.067 1.067h49.067c.589 0 1.067-.478 1.067-1.067v-2.133a5.34 5.34 0 0 0-5.333-5.333h-12.8V49.98c2.005.421 4.048.635 6.097.64a29.697 29.697 0 0 0 14.08-3.567l1.636 1.646c.199.203.469.318.753.32.28-.002.548-.113.747-.31l3.025-3.008a1.067 1.067 0 0 0 0-1.508zM46.56 12.466a2.134 2.134 0 1 1 1.504 3.646h-.006a2.133 2.133 0 0 1-1.493-3.646h-.004zm-2.511 7.009-1.197 5.891-2.351-2.365 3.548-3.526zm-1.212-1.803-3.84 3.818-2.971-2.987 6.811-.831zM48.008 57.6a3.2 3.2 0 0 1 3.2 3.2v1.067H4.275V60.8a3.2 3.2 0 0 1 3.2-3.2h40.533zm-14.933-4.267v2.133H22.408v-2.133h10.667zM22.408 51.2v-8.107c0-2.588 2.393-4.693 5.333-4.693s5.333 2.106 5.333 4.693V51.2H22.407zm12.8-3.392v-4.715c0-3.764-3.349-6.827-7.467-6.827a7.6 7.6 0 0 0-6.562 3.572 27.739 27.739 0 0 1-4.557-31.774l37.204 37.417a27.643 27.643 0 0 1-18.618 2.326zm22.578-1.367L15.672 4.079l1.509-1.504 15.87 15.96c.008 0 .012.014.019.019l26.229 26.383-1.514 1.504z"/><path fill="#4d5ae5" d="M27.751 40.533h-.01a3.2 3.2 0 0 0-.01 6.4h.01a3.2 3.2 0 0 0 .01-6.4zm.747 3.957a1.066 1.066 0 1 1-.756-1.823 1.067 1.067 0 0 1 .747 1.823h.01z"/></svg><svg width="64" height="64" x="128" viewBox="0 0 64 64"><path fill="#2e2f42" d="M62.593 30.602C62.59 13.697 48.882-.004 31.977 0S1.371 13.711 1.375 30.616a30.609 30.609 0 0 0 21.299 29.152c.121.038.247.058.374.057.241-.001.477-.065.685-.188.27-.16.472-.414.566-.713l7.73-24.5a3.826 3.826 0 0 0-.04-7.653 3.763 3.763 0 0 0-1.64.383L20.137 16.941a1.276 1.276 0 0 0-1.803 1.804L28.54 28.963a3.753 3.753 0 0 0 1.073 4.618l-7.365 23.346C7.692 51.565.239 35.419 5.601 20.864S27.109-1.145 41.664 4.217C56.22 9.579 63.673 25.725 58.311 40.28a28.092 28.092 0 0 1-14.924 15.947l-.796-3.748a1.275 1.275 0 0 0-2.097-.687l-7.674 6.851a1.276 1.276 0 0 0 .461 2.169l9.797 3.127a1.275 1.275 0 0 0 1.638-1.479l-.782-3.678a30.51 30.51 0 0 0 18.658-28.178zm-30.609-1.275a1.275 1.275 0 1 1 0 2.55 1.275 1.275 0 0 1 0-2.55zm4.201 29.728 4.368-3.897 1.206 5.681-5.574-1.784z"/><path fill="#4d5ae5" d="M30.709 6.37v2.551a1.275 1.275 0 1 0 2.55 0V6.37a1.275 1.275 0 0 0-2.55 0zM7.752 29.327a1.275 1.275 0 1 0 0 2.55h2.551a1.275 1.275 0 1 0 0-2.55H7.752zM56.216 31.878a1.275 1.275 0 1 0 0-2.55h-2.551a1.275 1.275 0 0 0 0 2.55h2.551z"/></svg><svg width="64" height="64" x="256" viewBox="0 0 64 64"><path d="M29.851 29.929h2.132v9.595h-2.132v-9.595zM38.38 34.194h2.132v5.331H38.38v-5.331zM21.322 37.392h2.132v2.132h-2.132v-2.132zM14.925 36.326h2.132v3.198h-2.132v-3.198z"/><path d="M3.198 56.582h51.173a3.198 3.198 0 0 0 3.198-3.198V49.12a3.198 3.198 0 0 0-3.198-3.198h-1.066V19.335l6.056-5.737a3.216 3.216 0 1 0-1.494-1.526l-4.563 4.325v-2.46a3.198 3.198 0 0 0-3.198-3.198H7.462a3.198 3.198 0 0 0-3.198 3.198V45.92H3.198A3.198 3.198 0 0 0 0 49.118v4.264a3.198 3.198 0 0 0 3.198 3.198zm57.57-46.909a1.066 1.066 0 1 1 0 2.131 1.066 1.066 0 0 1 0-2.131zM6.397 13.938c0-.589.477-1.066 1.066-1.066h42.644c.589 0 1.066.477 1.066 1.066v4.477l-2.132 2.026V16.07c0-.589-.477-1.066-1.066-1.066H9.595c-.589 0-1.066.477-1.066 1.066v26.653c0 .589.477 1.066 1.066 1.066h38.38c.589 0 1.066-.477 1.066-1.066V23.374l2.132-2.02v24.567H6.397V13.938zm9.595 13.859a3.197 3.197 0 1 0 2.214 5.496l3.706 1.859c.43.215.953.114 1.273-.245l7.878-8.863 7.744 5.803c.415.311.995.278 1.372-.079l6.73-6.375v16.262H10.661v-24.52h36.248v5.321l-7.543 7.143-7.809-5.854a1.066 1.066 0 0 0-1.436.144l-7.986 8.985-2.985-1.493c.022-.128.035-.257.041-.387a3.198 3.198 0 0 0-3.198-3.198zm1.066 3.198a1.066 1.066 0 1 1-2.131 0 1.066 1.066 0 0 1 2.131 0zm6.396 17.058h10.661v1.066c0 .589-.477 1.066-1.066 1.066H24.52a1.066 1.066 0 0 1-1.066-1.066v-1.066zM2.132 49.119c0-.589.477-1.066 1.066-1.066h18.124v1.066a3.198 3.198 0 0 0 3.198 3.198h8.529a3.198 3.198 0 0 0 3.198-3.198v-1.066h18.124c.589 0 1.066.477 1.066 1.066v4.264c0 .589-.477 1.066-1.066 1.066H3.198a1.066 1.066 0 0 1-1.066-1.066v-4.264z"/></svg><svg width="64" height="64" x="384" viewBox="0 0 64 64"><path fill="#4d5ae5" d="M63.948 9.048a1.067 1.067 0 0 0-.861-.725l-3.821-.556-1.71-3.462c-.358-.73-1.554-.73-1.913 0l-1.71 3.462-3.821.556a1.066 1.066 0 0 0-.592 1.818l2.766 2.696-.653 3.806c-.068.4.096.804.423 1.043.332.241.765.271 1.124.081l3.418-1.797 3.418 1.797a1.072 1.072 0 0 0 1.124-.081c.328-.239.493-.643.423-1.043l-.653-3.806 2.766-2.696a1.07 1.07 0 0 0 .27-1.093zm-4.926 2.654a1.064 1.064 0 0 0-.306.944l.382 2.228-2.001-1.052a1.066 1.066 0 0 0-.994 0l-2.001 1.052.382-2.228a1.068 1.068 0 0 0-.306-.944l-1.62-1.579 2.238-.325c.348-.05.648-.269.803-.584L56.6 7.187l1.001 2.027c.156.315.456.533.803.584l2.238.325-1.618 1.579zM52.267 41.044h-2.133v2.133h2.133v-2.133zM52.267 45.311h-2.133v2.133h2.133v-2.133zM54.4 43.178h-2.133v2.133H54.4v-2.133zM50.134 43.178h-2.133v2.133h2.133v-2.133zM44.8 52.778h-2.133v2.133H44.8v-2.133zM44.8 57.045h-2.133v2.133H44.8v-2.133zM46.934 54.911h-2.133v2.133h2.133v-2.133zM42.667 54.911h-2.133v2.133h2.133v-2.133zM32 48.511h-2.133v2.133H32v-2.133zM32 52.778h-2.133v2.133H32v-2.133zM34.133 50.645H32v2.133h2.133v-2.133zM29.867 50.645h-2.133v2.133h2.133v-2.133zM11.733 12.244H9.6v2.133h2.133v-2.133zM11.733 16.511H9.6v2.133h2.133v-2.133zM13.866 14.377h-2.133v2.133h2.133v-2.133zM9.6 14.377H7.467v2.133H9.6v-2.133z"/><path fill="#2e2f42" d="M49.429 28.319a3.545 3.545 0 0 0-2.377-1.409 3.55 3.55 0 0 0-2.68.704l-2.505 1.92-3.795 2.834-2.716-1.082c4.843-2.173 8.227-7.017 8.227-12.64 0-7.646-6.245-13.867-13.922-13.867S15.739 11 15.739 18.646c0 2.771.829 5.348 2.24 7.517l-5.528-.048h-.01c-.017 0-.031.009-.047.01a1.036 1.036 0 0 0-.31.062c-.026.01-.052.015-.077.027-.013.005-.026.006-.038.013L5.503 29.42l-.002.001-3.787 1.821a.881.881 0 0 0-.126.07 3.562 3.562 0 0 0 .915 6.369 3.565 3.565 0 0 0 2.757-.257l2.776-1.476 4.528-2.338 2.714-.016L4.395 44.425l-.003.002-2.677 2.667a3.3 3.3 0 0 0-.98 2.355c0 .89.348 1.727.98 2.357.65.646 1.504.971 2.358.971a3.34 3.34 0 0 0 2.361-.971l2.628-2.618 3.482-2.599 1.802 1.794-3.523 3.508-.003.002-2.677 2.667a3.296 3.296 0 0 0-.98 2.355c0 .89.348 1.727.98 2.357.65.646 1.505.971 2.36.971s1.71-.324 2.361-.971l6.963-6.933.002-.003 2.019-2-.008-.008c.013-.013.031-.017.044-.031l10.332-11.316 6.942.988a.947.947 0 0 0 .524-.066c.035-.013.066-.03.099-.047.038-.019.079-.03.115-.054l6.427-4.267c.023-.016.036-.042.059-.059.026-.02.058-.029.081-.051l2.543-2.382a3.56 3.56 0 0 0 .424-4.724zM4.261 35.54c-.347.186-.74.223-1.117.103a1.428 1.428 0 0 1-.424-2.52l2.627-1.264.898 2.625-1.984 1.055zm6.994-3.655-3.097 1.6-.878-2.567 4.054-2.001-.079 2.968zm30.199-13.241c0 1.837-.438 3.569-1.198 5.119l-8.363-3.798a3.724 3.724 0 0 0-1.576-2.776l2.928-9.721c4.755 1.513 8.209 5.949 8.209 11.176zm-23.578 0c0-6.469 5.289-11.733 11.789-11.733.506 0 1.001.043 1.49.104l-2.864 9.507c-.038-.001-.075-.012-.114-.012-2.065 0-3.745 1.675-3.745 3.733s1.68 3.733 3.745 3.733c1.389 0 2.589-.767 3.236-1.889l7.725 3.509c-2.149 2.893-5.59 4.78-9.473 4.78-6.5 0-11.789-5.264-11.789-11.734zm11.913 1.6c0 .882-.723 1.6-1.612 1.6s-1.612-.718-1.612-1.6c0-.882.723-1.6 1.612-1.6s1.612.718 1.612 1.6zM4.93 50.292a1.217 1.217 0 0 1-1.709.001 1.189 1.189 0 0 1 0-1.689l1.924-1.917 1.702 1.695-1.918 1.909zm6.427 7.467a1.217 1.217 0 0 1-1.71.001 1.189 1.189 0 0 1 0-1.689l1.925-1.918 1.704 1.695-1.919 1.91zm6.964-6.937-.003.002-3.53 3.52-1.704-1.695 3.526-3.51v-.001l.003-.002c.08-.08.13-.176.179-.271.014-.028.041-.051.052-.08.033-.082.038-.171.051-.257.006-.049.028-.095.028-.145 0-.072-.026-.141-.041-.211-.013-.064-.013-.129-.037-.191-.041-.1-.11-.189-.182-.275-.02-.023-.028-.053-.05-.076h-.001l-.002-.004-3.214-3.2c-.034-.034-.078-.048-.116-.077a.989.989 0 0 0-.174-.115.987.987 0 0 0-.187-.065 1.013 1.013 0 0 0-.206-.039 1.02 1.02 0 0 0-.191.01.982.982 0 0 0-.208.041.934.934 0 0 0-.189.09c-.04.022-.084.03-.122.058l-3.547 2.648-1.802-1.794 4.798-4.772 8.721 8.577-1.855 1.838zm13.637-14.034c-.031-.004-.06.008-.091.005a1.046 1.046 0 0 0-.23.014.983.983 0 0 0-.369.137.99.99 0 0 0-.166.123c-.026.022-.056.033-.08.059l-9.396 10.291-8.656-8.513 5.666-5.636a1.067 1.067 0 0 0-.76-1.822v-.001l-4.437.027.056-3.215 6.208.053a13.897 13.897 0 0 0 9.963 4.202c.875 0 1.728-.091 2.559-.245.08.064.159.129.259.17l4.819 1.92.305 1.517.356 1.771-6.005-.854zm8.083.357-.626-3.116 2.893-2.16 1.893 2.513-4.16 2.763zm7.507-5.662-1.676 1.57-1.862-2.473 1.663-1.275c.31-.239.702-.336 1.086-.286.386.054.727.256.96.569a1.428 1.428 0 0 1-.171 1.894z"/><path fill="#2e2f42" d="m27.204 37.088-4.286-4.267a1.065 1.065 0 0 0-1.505 0l-4.285 4.267a1.07 1.07 0 0 0 0 1.512l4.285 4.267a1.065 1.065 0 0 0 1.505 0l4.286-4.267a1.067 1.067 0 0 0 0-1.512zm-5.038 3.518-2.773-2.762 2.773-2.762 2.774 2.762-2.774 2.762zM34.328 10.142l-.515 2.072c.142.035 3.475.903 3.475 4.298h2.133c0-4.034-3.331-5.931-5.093-6.369zM39.422 18.644h-2.133v2.134h2.133v-2.134z"/></svg><svg width="16" height="16" y="128" viewBox="0 0 16 16"><path fill="#f4f4fd" d="M15.984 4.704c-.037-.85-.175-1.435-.372-1.941a3.904 3.904 0 0 0-.925-1.419 3.944 3.944 0 0 0-1.416-.922C12.762.225 12.18.088 11.33.05 10.473.009 10.202 0 8.029 0S5.585.009 4.731.047c-.85.037-1.435.175-1.941.372a3.904 3.904 0 0 0-1.419.925c-.406.4-.722.885-.922 1.416-.197.51-.334 1.091-.372 1.941-.041.856-.05 1.128-.05 3.301s.009 2.444.047 3.298c.037.85.175 1.435.372 1.941.203.538.519 1.019.925 1.419.4.406.885.722 1.416.922.51.197 1.091.335 1.941.372.853.038 1.125.047 3.298.047s2.444-.009 3.298-.047c.85-.037 1.435-.175 1.941-.372a4.095 4.095 0 0 0 2.341-2.341c.197-.509.334-1.091.372-1.941.038-.853.047-1.125.047-3.298s-.003-2.444-.041-3.298zm-1.441 6.532c-.034.781-.166 1.203-.275 1.485a2.655 2.655 0 0 1-1.519 1.519c-.281.109-.706.241-1.485.275-.844.038-1.097.047-3.232.047s-2.391-.009-3.232-.047c-.781-.034-1.203-.166-1.485-.275a2.453 2.453 0 0 1-.919-.597 2.477 2.477 0 0 1-.597-.919c-.109-.281-.241-.706-.275-1.485-.038-.844-.047-1.097-.047-3.232s.009-2.391.047-3.232c.034-.781.166-1.203.275-1.485.128-.347.331-.663.6-.919.259-.266.572-.469.919-.597.281-.109.706-.241 1.485-.275.844-.037 1.097-.047 3.232-.047 2.138 0 2.391.009 3.232.047.781.034 1.203.166 1.485.275.347.128.663.331.919.597.266.259.469.572.597.919.109.281.241.706.275 1.485.037.844.047 1.097.047 3.232s-.009 2.385-.047 3.229z"/><path fill="#f4f4fd" d="M8.03 3.891a4.111 4.111 0 0 0 0 8.22 4.111 4.111 0 0 0 0-8.22zm0 6.777a2.667 2.667 0 1 1 .001-5.333 2.667 2.667 0 0 1-.001 5.333zM13.262 3.729a.96.96 0 1 1-1.92 0 .96.96 0 0 1 1.92 0z"/></svg><svg width="16" height="16" x="80" y="128" viewBox="0 0 16 16"><path fill="#f4f4fd" d="M16 3.039a6.839 6.839 0 0 1-1.89.518 3.262 3.262 0 0 0 1.443-1.813 6.555 6.555 0 0 1-2.08.794 3.28 3.28 0 0 0-5.674 2.243c0 .26.022.51.076.748a9.284 9.284 0 0 1-6.761-3.431 3.285 3.285 0 0 0 1.008 4.384A3.24 3.24 0 0 1 .64 6.078v.036a3.295 3.295 0 0 0 2.628 3.223 3.274 3.274 0 0 1-.86.108 2.9 2.9 0 0 1-.621-.056 3.311 3.311 0 0 0 3.065 2.285 6.59 6.59 0 0 1-4.067 1.399c-.269 0-.527-.012-.785-.045A9.234 9.234 0 0 0 5.032 14.5c6.036 0 9.336-5 9.336-9.334 0-.145-.005-.285-.012-.424A6.544 6.544 0 0 0 16 3.039z"/></svg><svg width="16" height="16" x="160" y="128" viewBox="0 0 16 16"><path fill="#f4f4fd" d="M10.665 2.657h1.461V.113A18.755 18.755 0 0 0 9.998 0C7.892 0 6.449 1.325 6.449 3.759V6H4.125v2.844h2.324V16h2.849V8.845h2.23l.354-2.844H9.297V4.042c.001-.822.222-1.385 1.367-1.385z"/></svg><svg width="16" height="16" x="240" y="128" viewBox="0 0 16 16"><path fill="#f4f4fd" d="M15.996 16v-.001H16v-5.868c0-2.871-.618-5.082-3.974-5.082-1.613 0-2.696.885-3.138 1.725h-.047V5.317H5.659v10.682h3.313V10.71c0-1.393.264-2.739 1.989-2.739 1.699 0 1.725 1.589 1.725 2.829v5.201h3.31zM.264 5.318h3.317V16H.264V5.318zM1.921 0C.86 0 0 .861 0 1.921S.861 3.86 1.921 3.86c1.061 0 1.921-.879 1.921-1.939S2.981 0 1.921 0z"/></svg><svg width="16" height="16" x="320" y="128" viewBox="0 0 16 16"><path fill="none" stroke="#000" d="M2 .5h12A1.5 1.5 0 0 1 15.5 2v12a1.5 1.5 0 0 1-1.5 1.5H2A1.5 1.5 0 0 1 .5 14V2A1.5 1.5 0 0 1 2 .5z"/></svg><svg width="122" height="64" y="208" viewBox="0 0 122 64"><path fill="#8e8f99" d="m50.909 16.727 5.097 4.856-9.46-.006v23.558h24.727v-9.007l5.091 4.85V16.727H50.909zm20.14 18.831L56.598 21.791h14.451v13.767zm-4.487 6.131H50.458V25.845h1.138v14.771h14.966v1.073zm-12.892 7.81-.6-1.234h-.495l.87 1.633v.952h.449v-.952l.87-1.633h-.494l-.6 1.234zm2.212-1.234h.107l.977 2.585h-.469l-.209-.605h-1.001l-.209.605h-.467l.973-2.585h.298zm-.474 1.626h.757l-.379-1.097-.378 1.097zm3.124-.428-.056-.072a1.305 1.305 0 0 1-.154-.254.695.695 0 0 1 .028-.604.555.555 0 0 1 .236-.224.764.764 0 0 1 .357-.08c.131 0 .244.027.339.08a.553.553 0 0 1 .298.492.563.563 0 0 1-.167.409 1.228 1.228 0 0 1-.181.158l-.18.131.512.604a1.042 1.042 0 0 0 .112-.483h.369c0 .126-.012.244-.037.357a1.12 1.12 0 0 1-.188.426l.379.447h-.495l-.15-.177c-.081.062-.17.11-.265.145a1.177 1.177 0 0 1-.401.068c-.172 0-.32-.031-.446-.094s-.223-.149-.291-.259a.703.703 0 0 1-.101-.378c0-.105.022-.198.066-.277a.887.887 0 0 1 .179-.224c.07-.063.15-.127.239-.19zm.213.26-.053.039a.671.671 0 0 0-.14.147.435.435 0 0 0-.073.231.44.44 0 0 0 .048.206.364.364 0 0 0 .144.147.478.478 0 0 0 .233.053.658.658 0 0 0 .286-.066.899.899 0 0 0 .132-.081l-.575-.677zm.102-.472.159-.107a.566.566 0 0 0 .16-.146.321.321 0 0 0 .048-.181c0-.062-.024-.118-.071-.17s-.114-.078-.201-.078a.262.262 0 0 0-.247.153.367.367 0 0 0 .011.316 1.062 1.062 0 0 0 .142.214zm4.523.758h-.444a.796.796 0 0 1-.082.286.401.401 0 0 1-.179.176.676.676 0 0 1-.307.06c-.104 0-.194-.021-.268-.062s-.136-.1-.185-.176a.858.858 0 0 1-.106-.272 1.691 1.691 0 0 1-.034-.355v-.218c0-.137.012-.259.037-.366.026-.108.065-.198.115-.272s.114-.129.19-.167a.586.586 0 0 1 .266-.057c.124 0 .225.021.302.064a.401.401 0 0 1 .174.181.83.83 0 0 1 .078.286h.444a1.108 1.108 0 0 0-.146-.46c-.078-.134-.188-.239-.33-.314s-.316-.114-.522-.114c-.162 0-.308.028-.439.085a.918.918 0 0 0-.332.247 1.121 1.121 0 0 0-.213.385c-.048.15-.073.319-.073.504v.215c0 .186.024.354.071.504.048.15.118.279.209.385a.955.955 0 0 0 .759.33c.208 0 .385-.038.531-.114s.259-.179.339-.311a1.02 1.02 0 0 0 .142-.453zm2.466-.38v-.142c0-.195-.026-.37-.078-.524a1.148 1.148 0 0 0-.218-.396.924.924 0 0 0-.339-.25 1.069 1.069 0 0 0-.437-.087c-.159 0-.304.029-.435.087a.953.953 0 0 0-.339.25 1.152 1.152 0 0 0-.22.396 1.63 1.63 0 0 0-.078.524v.142c0 .195.026.371.078.526.053.155.128.287.224.396a.977.977 0 0 0 .774.335c.16 0 .305-.028.437-.085a.935.935 0 0 0 .337-.25c.095-.109.168-.241.218-.396s.076-.33.076-.526zm-.446-.146v.146c0 .144-.014.272-.043.384a.826.826 0 0 1-.121.282.525.525 0 0 1-.46.229.588.588 0 0 1-.263-.057.56.56 0 0 1-.199-.172c-.054-.077-.096-.171-.124-.282s-.043-.239-.043-.384v-.146c0-.144.014-.272.043-.382a.814.814 0 0 1 .123-.279.515.515 0 0 1 .197-.17c.077-.039.165-.059.263-.059s.186.02.265.059a.517.517 0 0 1 .197.17.805.805 0 0 1 .123.279c.028.11.043.237.043.382z"/></svg><svg width="122" height="64" x="256" y="208" viewBox="0 0 122 64"><path fill="#8e8f99" d="M59.719 15.952h-.099a14.014 14.014 0 0 0-.458-.017h-.331c-.289 0-.583.007-.876.022a.364.364 0 0 0-.066 0c-2.651.15-5.247.813-7.648 1.951l-.315.152v16.103l.736-.25a27.989 27.989 0 0 1 2.046-.607 24.946 24.946 0 0 1 5.887-.782v2.116a17.9 17.9 0 0 0-.775.022h-.061a23.596 23.596 0 0 0-4.53.695 23.025 23.025 0 0 0-5.396 2.103V16.808a21.653 21.653 0 0 1 5.661-2.303 21.678 21.678 0 0 1 5.335-.688h.311c.372.009.734.026 1.075.052.897.063 1.786.205 2.659.424v2.082a16.464 16.464 0 0 0-2.576-.388l-.053-.004c-.179-.015-.359-.031-.527-.031zm3.665 2.129c.462.035.94.052 1.424.052a22.925 22.925 0 0 0 5.609-.719 23.043 23.043 0 0 0 5.394-2.105v20.284a21.666 21.666 0 0 1-5.663 2.303 21.784 21.784 0 0 1-5.335.686 16.293 16.293 0 0 1-4.048-.477V17.69a16.523 16.523 0 0 0 2.618.392zm10.323.157-.736.248c-.677.227-1.359.431-2.046.612a24.922 24.922 0 0 1-6.114.784c-.48 0-.922-.013-1.349-.041l-.587-.039v16.565l.504.044c.467.041.949.061 1.435.061a19.562 19.562 0 0 0 4.815-.623 20.194 20.194 0 0 0 3.762-1.352l.315-.152V18.237zM49.263 44.518a1.082 1.082 0 0 0-.818-.331 1.216 1.216 0 0 0-.473.089 1.048 1.048 0 0 0-.605.612c-.058.145-.087.3-.085.457v2.759c-.007.194.031.388.109.566.065.141.159.267.276.37.11.093.24.16.379.196.134.038.273.057.412.057.154.002.306-.031.445-.096a1.158 1.158 0 0 0 .697-1.065v-.309h-.721v.246a.644.644 0 0 1-.042.246.422.422 0 0 1-.105.155.52.52 0 0 1-.302.106.36.36 0 0 1-.338-.148.66.66 0 0 1-.096-.37v-2.572a.875.875 0 0 1 .088-.412.361.361 0 0 1 .353-.166.386.386 0 0 1 .322.155.586.586 0 0 1 .12.37v.239h.714v-.281a1.329 1.329 0 0 0-.088-.483 1.116 1.116 0 0 0-.241-.388zM53.548 44.487a1.285 1.285 0 0 0-.821-.303 1.268 1.268 0 0 0-.431.078 1.122 1.122 0 0 0-.661.613 1.294 1.294 0 0 0-.105.535v2.647c-.005.186.031.371.105.542.065.142.161.269.28.37.11.102.24.182.381.233a1.245 1.245 0 0 0 1.252-.233c.115-.103.208-.229.272-.37.074-.171.11-.356.105-.542V45.41a1.278 1.278 0 0 0-.105-.535 1.206 1.206 0 0 0-.272-.387zm-.336 3.567a.474.474 0 0 1-.144.383.527.527 0 0 1-.679 0 .476.476 0 0 1-.144-.383v-2.647a.474.474 0 0 1 .144-.383.526.526 0 0 1 .679 0 .476.476 0 0 1 .144.383v2.647zM59.176 49.236v-5.01h-.694l-.911 2.652h-.013l-.918-2.652h-.686v5.01h.716v-3.048h.013l.701 2.155h.357l.706-2.155h.013v3.048h.716zM63.242 44.577a.986.986 0 0 0-.405-.274 1.602 1.602 0 0 0-.519-.078h-1.063v5.01h.714v-1.957h.368c.223.01.444-.037.644-.137.162-.09.298-.222.392-.383.083-.133.138-.282.164-.436.028-.188.041-.379.039-.57a2.872 2.872 0 0 0-.07-.716 1.075 1.075 0 0 0-.263-.461zm-.368 1.528a.638.638 0 0 1-.066.261.402.402 0 0 1-.184.176.737.737 0 0 1-.337.063h-.326v-1.703h.368a.688.688 0 0 1 .322.063.4.4 0 0 1 .167.185c.039.088.06.183.063.279v.333c0 .117.007.237 0 .344h-.007zM66.624 44.226h-.585l-1.104 5.01h.714l.21-1.076h.973l.21 1.076h.714l-1.132-5.01zm-.659 3.251.351-1.816h.013l.35 1.816h-.714zM71.236 47.244h-.013l-1.078-3.018h-.686v5.01h.714v-3.013h.015l1.091 3.013h.671v-5.01h-.714v3.018zM75.599 44.226l-.575 1.992h-.015l-.574-1.992h-.756l.98 2.892v2.117h.714v-2.117l.98-2.892h-.756zM47.273 50.651h.344v.965h.234v-.965h.342v-.198h-.92v.198zM50.165 50.453l-.451 1.163h.248l.096-.264h.464l.099.264h.254l-.462-1.163h-.248zm-.037.702.158-.431.158.431h-.316zM53.024 51.187h.269v.15a.447.447 0 0 1-.276.098.293.293 0 0 1-.247-.111.489.489 0 0 1-.087-.303c0-.259.112-.388.335-.388a.246.246 0 0 1 .263.185l.23-.044c-.05-.227-.213-.342-.493-.342a.587.587 0 0 0-.407.15.567.567 0 0 0-.168.447.634.634 0 0 0 .149.437.571.571 0 0 0 .441.17.697.697 0 0 0 .493-.185v-.459h-.504v.196zM55.944 50.453h-.236v1.163h.815v-.198h-.58v-.965zM58.413 50.453h-.236v1.163h.236v-1.163zM60.827 51.229l-.477-.777h-.228v1.163h.219v-.76l.467.76h.234v-1.163h-.215v.777zM63.009 51.104h.58v-.198h-.58v-.255h.624v-.198h-.859v1.163h.883v-.198h-.648v-.314zM68.3 50.911h-.458v-.459h-.234v1.163h.234v-.509h.458v.509h.234v-1.163H68.3v.459zM70.495 51.104h.581v-.198h-.581v-.255h.626v-.198h-.859v1.163h.881v-.198h-.648v-.314zM73.471 51.104c.203-.031.305-.139.305-.324.006-.049-.001-.1-.022-.145s-.052-.085-.092-.114a.646.646 0 0 0-.34-.068h-.493v1.163h.234v-.486h.046c.049-.003.1.006.145.026.034.021.063.05.083.085l.254.37h.279l-.142-.227a.819.819 0 0 0-.257-.279zm-.235-.161h-.172v-.292h.184a.595.595 0 0 1 .237.028c.017.015.031.034.039.055s.013.044.012.066c-.001.023-.007.045-.017.065s-.026.037-.044.051a.66.66 0 0 1-.238.028zM75.716 51.104h.579v-.198h-.579v-.255h.625v-.198h-.861v1.163h.883v-.198h-.647v-.314z"/></svg><svg width="122" height="64" x="512" y="208" viewBox="0 0 122 64"><path fill="#8e8f99" d="M50.044 47.435a.098.098 0 0 1 .062.024l.161.151a1.32 1.32 0 0 1-.452.286 1.776 1.776 0 0 1-.64.103 1.723 1.723 0 0 1-.602-.096 1.339 1.339 0 0 1-.454-.271 1.211 1.211 0 0 1-.293-.419 1.367 1.367 0 0 1-.102-.537 1.294 1.294 0 0 1 .11-.539c.07-.156.176-.298.311-.419.137-.118.301-.211.482-.273.198-.065.408-.098.62-.096.197-.004.393.026.576.087.159.059.305.141.432.242l-.135.161a.137.137 0 0 1-.034.029.092.092 0 0 1-.054.012.127.127 0 0 1-.058-.017l-.072-.043-.1-.055a1.147 1.147 0 0 0-.318-.096 1.47 1.47 0 0 0-.239-.017 1.316 1.316 0 0 0-.446.072.931.931 0 0 0-.576.525 1.065 1.065 0 0 0-.082.425c-.002.147.025.293.082.432a.924.924 0 0 0 .556.52c.131.046.272.07.413.069a1.82 1.82 0 0 0 .245-.014.981.981 0 0 0 .53-.221.122.122 0 0 1 .076-.027zM54.681 46.677a1.28 1.28 0 0 1-.108.533c-.065.155-.169.296-.302.414s-.296.211-.475.272a1.99 1.99 0 0 1-1.221 0 1.419 1.419 0 0 1-.472-.273 1.202 1.202 0 0 1-.305-.419 1.368 1.368 0 0 1 0-1.069c.069-.156.172-.299.305-.42.135-.114.295-.204.472-.263a1.96 1.96 0 0 1 1.221 0c.178.062.34.155.474.273a1.233 1.233 0 0 1 .411.95zm-.422 0a1.13 1.13 0 0 0-.076-.429.882.882 0 0 0-.554-.523 1.43 1.43 0 0 0-.887 0 .956.956 0 0 0-.339.202.867.867 0 0 0-.217.321 1.241 1.241 0 0 0 0 .858.867.867 0 0 0 .217.321c.094.088.21.156.339.201.286.091.601.091.887 0a.954.954 0 0 0 .339-.201.907.907 0 0 0 .215-.321c.054-.138.08-.283.076-.429zM57.845 47.126l.042.096c.016-.034.03-.065.046-.096a.862.862 0 0 1 .052-.094l1.026-1.593c.02-.027.038-.045.058-.05a.297.297 0 0 1 .084-.009h.303v2.592h-.359V45.985a.66.66 0 0 1 0-.089l-1.032 1.616c-.013.024-.034.045-.06.059s-.057.022-.088.022h-.058c-.031 0-.062-.007-.088-.021s-.047-.035-.06-.059l-1.062-1.626v2.08h-.347V45.38h.303a.297.297 0 0 1 .084.009.11.11 0 0 1 .056.05l1.048 1.595a.47.47 0 0 1 .052.093zM61.705 46.998v.971h-.401v-2.588h.895a1.91 1.91 0 0 1 .5.057c.13.032.251.087.353.161.089.07.158.157.201.254a.765.765 0 0 1 .068.331.724.724 0 0 1-.291.59 1.046 1.046 0 0 1-.355.172c-.156.043-.32.063-.484.06l-.486-.007zm0-.278h.486c.105.001.211-.012.311-.039a.696.696 0 0 0 .225-.111.488.488 0 0 0 .184-.39c.005-.072-.009-.144-.04-.211s-.079-.127-.14-.177a.875.875 0 0 0-.54-.139h-.486v1.067zM67.101 47.972h-.317a.155.155 0 0 1-.088-.024.156.156 0 0 1-.052-.06l-.273-.626H65l-.283.626a.14.14 0 0 1-.05.058.156.156 0 0 1-.09.026h-.317l1.204-2.592h.418l1.221 2.592zm-1.987-.962h1.132l-.478-1.055a1.556 1.556 0 0 1-.09-.244l-.046.136c-.014.041-.03.079-.044.11l-.474 1.053zM68.836 45.392a.163.163 0 0 1 .06.046l1.757 1.954V45.38h.359v2.592h-.201a.206.206 0 0 1-.082-.015.207.207 0 0 1-.064-.048l-1.755-1.952a.66.66 0 0 1 0 .089v1.926h-.359V45.38h.213a.195.195 0 0 1 .072.012zM73.971 46.941v1.029h-.401v-1.029l-1.11-1.561h.359a.145.145 0 0 1 .087.022c.022.017.04.036.054.058l.695 1.007c.028.043.052.082.073.12s.036.074.05.11l.052-.111c.02-.041.043-.08.068-.118l.685-1.014a.245.245 0 0 1 .052-.055.138.138 0 0 1 .087-.026h.364l-1.113 1.568zM57.646 41.031c.175.019.351.034.53.048 2.709-1.035 5-2.73 6.588-4.872s2.401-4.636 2.339-7.171l-2.985-2.551c.607 2.699.323 5.489-.82 8.058s-3.1 4.815-5.652 6.488z"/><path fill="#8e8f99" d="m56.58 40.912.08.014c2.727-1.667 4.806-3.994 5.969-6.681s1.355-5.611.552-8.392l-4.252-3.633c1.72 2.986 2.412 6.328 1.996 9.637s-1.923 6.449-4.345 9.055zM71 32.031c-.722 2.785-2.477 5.297-5.003 7.163a15.948 15.948 0 0 1-2.377 1.458c2.057-.517 3.947-1.43 5.526-2.669s2.803-2.772 3.578-4.48L71 32.031z"/><path fill="#8e8f99" d="m70.323 31.621-2.455-2.098c-.047 2.392-.843 4.729-2.305 6.769S62.026 40 59.555 41.123h.012c.551 0 1.101-.028 1.648-.084 2.31-.806 4.351-2.087 5.94-3.731s2.678-3.597 3.168-5.688zM56.935 20.688l-2.929-2.506c-2.618.864-4.87 2.384-6.461 4.36s-2.446 4.317-2.454 6.715c.01 2.65 1.054 5.222 2.967 7.308s4.586 3.568 7.595 4.21c2.686-2.796 4.259-6.252 4.49-9.864s-.893-7.193-3.207-10.223zM77.091 31.235c-.011-3.144-1.477-6.157-4.079-8.38s-6.129-3.476-9.809-3.485c-1.7-.002-3.387.267-4.973.791l17.933 15.322c.614-1.354.928-2.794.927-4.247z"/></svg><svg width="122" height="64" x="768" y="208" viewBox="0 0 122 64"><path fill="#8e8f99" d="M40.784 27.286h-.002c-1.735 0-3.142 1.268-3.142 2.832v.002c0 1.564 1.407 2.832 3.142 2.832h.002c1.735 0 3.142-1.268 3.142-2.832v-.002c0-1.564-1.407-2.832-3.142-2.832zM63.972 26.38c-.005-2.173-.964-4.255-2.668-5.792s-4.013-2.402-6.423-2.407c-2.41.004-4.721.869-6.426 2.405s-2.665 3.62-2.669 5.793V38.36s18.184-1.826 18.187-11.979v-.002zM31.273 42.294c.004 1.512.672 2.961 1.858 4.03S35.923 47.996 37.6 48c1.676-.004 3.283-.607 4.468-1.676s1.853-2.517 1.858-4.029v-8.337s-12.653 1.272-12.653 8.335zm6.326 1.494c-.328 0-.648-.088-.92-.252s-.485-.397-.61-.67-.158-.573-.094-.863c.064-.29.222-.556.453-.765s.527-.351.848-.409c.321-.058.654-.028.957.085s.561.304.743.55c.182.246.279.534.279.83.001.197-.041.392-.124.573s-.205.347-.359.486-.337.25-.538.325-.417.114-.635.114v-.006zM49.17 41.102v3.102h-.639v-3.102h.639zm1.236 1.325v.499h-1.41v-.499h1.41zm.149-1.325v.501h-1.56v-.501h1.56zm2.919 1.479v.147c0 .236-.032.447-.096.635s-.154.347-.271.479a1.158 1.158 0 0 1-.418.3c-.16.07-.339.104-.535.104a1.35 1.35 0 0 1-.535-.104c-.16-.07-.3-.17-.418-.3a1.415 1.415 0 0 1-.275-.479 1.96 1.96 0 0 1-.096-.635v-.147c0-.237.032-.449.096-.635.064-.188.154-.347.271-.479.118-.132.257-.233.418-.303.162-.07.34-.104.535-.104.196 0 .374.035.535.104.162.07.301.17.418.303.118.132.209.292.273.479.065.186.098.398.098.635zm-.646.147v-.151c0-.165-.015-.31-.045-.435s-.074-.23-.132-.315a.573.573 0 0 0-.501-.258.611.611 0 0 0-.288.066.583.583 0 0 0-.211.192c-.057.085-.1.19-.13.315s-.045.27-.045.435v.151c0 .163.015.308.045.435.03.125.074.231.132.317.058.085.129.15.213.194s.18.066.288.066c.108 0 .204-.022.288-.066s.154-.109.211-.194a.998.998 0 0 0 .13-.317c.03-.126.045-.271.045-.435zm2.721.664a.392.392 0 0 0-.026-.149.288.288 0 0 0-.089-.124c-.044-.038-.106-.076-.185-.113s-.183-.075-.309-.115a4.024 4.024 0 0 1-.401-.153 1.647 1.647 0 0 1-.332-.198.918.918 0 0 1-.226-.266.735.735 0 0 1-.081-.352.73.73 0 0 1 .085-.352.817.817 0 0 1 .239-.273c.102-.077.223-.136.362-.177a1.65 1.65 0 0 1 .462-.062c.229 0 .428.041.599.124s.303.195.396.339a.869.869 0 0 1 .143.492h-.635a.486.486 0 0 0-.057-.239.391.391 0 0 0-.17-.164.602.602 0 0 0-.285-.06.662.662 0 0 0-.277.051.369.369 0 0 0-.166.134.33.33 0 0 0-.055.188c0 .053.013.1.038.143.027.043.067.082.119.119s.117.072.194.104c.077.033.165.065.266.096.169.051.317.109.445.173.129.064.237.136.324.215a.79.79 0 0 1 .262.614.76.76 0 0 1-.307.633c-.099.074-.218.13-.356.168s-.292.057-.462.057c-.153 0-.305-.02-.454-.06a1.383 1.383 0 0 1-.407-.185.898.898 0 0 1-.399-.769h.641c0 .097.015.178.045.245s.072.121.126.162a.534.534 0 0 0 .196.089c.077.019.16.028.251.028a.686.686 0 0 0 .273-.047.34.34 0 0 0 .16-.13.336.336 0 0 0 .053-.188zm2.461-2.29v3.102h-.637v-3.102h.637zm.955 0v.501h-2.531v-.501h2.531zm2.446 2.604v.499H59.76v-.499h1.651zm-1.443-2.604v3.102h-.639v-3.102h.639zm1.228 1.263v.486H59.76v-.486h1.436zm.213-1.263v.501H59.76v-.501h1.649zm.375 0h1.157c.237 0 .441.035.611.107.172.071.304.176.396.315s.138.31.138.513a.984.984 0 0 1-.085.428.794.794 0 0 1-.236.296 1.229 1.229 0 0 1-.356.188l-.202.106h-1.006l-.004-.499h.748c.112 0 .205-.02.279-.06s.129-.095.166-.166a.515.515 0 0 0 .057-.247c0-.099-.019-.185-.055-.258s-.093-.128-.168-.166-.17-.057-.283-.057h-.518v2.602h-.639v-3.102zm1.734 3.102-.707-1.383.675-.004.716 1.357v.03h-.684zm3.356-1.106h-.791v-.499h.791c.122 0 .222-.02.298-.06.077-.041.133-.098.168-.17s.053-.154.053-.245c0-.092-.018-.178-.053-.258s-.092-.144-.168-.192-.176-.072-.298-.072h-.569v2.602h-.639v-3.102h1.208c.243 0 .451.044.624.132a.942.942 0 0 1 .539.886c0 .2-.046.374-.139.52s-.226.259-.4.339c-.173.08-.381.119-.624.119zm3.686.608v.499h-1.651v-.499h1.651zm-1.442-2.604v3.102h-.639v-3.102h.639zm1.227 1.263v.486h-1.436v-.486h1.436zm.213-1.263v.501h-1.649v-.501h1.649zm1.805 0v3.102h-.637v-3.102h.637zm.954 0v.501h-2.531v-.501h2.531zm2.446 2.604v.499h-1.651v-.499h1.651zm-1.442-2.604v3.102h-.639v-3.102h.639zm1.227 1.263v.486h-1.436v-.486h1.436zm.213-1.263v.501h-1.649v-.501h1.649zm.375 0h1.157c.237 0 .441.035.612.107s.304.176.396.315.138.31.138.513a.984.984 0 0 1-.085.428.804.804 0 0 1-.236.296c-.101.078-.22.141-.356.188l-.202.106h-1.006l-.004-.499h.748c.112 0 .205-.02.279-.06s.129-.095.167-.166a.503.503 0 0 0 .057-.247c0-.099-.018-.185-.055-.258s-.093-.128-.169-.166a.623.623 0 0 0-.283-.057h-.518v2.602h-.639v-3.102zm1.735 3.102-.708-1.383.676-.004.716 1.357v.03h-.684zm2.675-.812a.412.412 0 0 0-.025-.149.28.28 0 0 0-.089-.124c-.044-.038-.105-.076-.185-.113s-.183-.075-.308-.115a4.024 4.024 0 0 1-.401-.153 1.647 1.647 0 0 1-.332-.198.903.903 0 0 1-.226-.266.735.735 0 0 1-.081-.352.73.73 0 0 1 .085-.352.828.828 0 0 1 .239-.273c.103-.077.223-.136.362-.177.141-.041.295-.062.463-.062.228 0 .428.041.599.124s.303.195.396.339a.869.869 0 0 1 .143.492h-.635a.486.486 0 0 0-.057-.239c-.036-.07-.094-.124-.17-.164s-.17-.06-.286-.06a.662.662 0 0 0-.277.051.374.374 0 0 0-.166.134.33.33 0 0 0-.055.188c0 .053.012.1.039.143s.066.082.119.119c.052.037.117.072.193.104s.166.065.266.096c.169.051.318.109.446.173s.237.136.324.215a.79.79 0 0 1 .261.614.76.76 0 0 1-.307.633c-.099.074-.217.13-.356.168s-.292.057-.463.057c-.153 0-.304-.02-.454-.06a1.394 1.394 0 0 1-.407-.185c-.121-.082-.217-.188-.29-.315s-.108-.279-.108-.454h.641c0 .097.015.178.044.245s.072.121.126.162c.055.041.121.071.196.089s.16.028.251.028a.686.686 0 0 0 .273-.047.335.335 0 0 0 .213-.318z"/></svg><svg width="122" height="64" x="1024" y="208" viewBox="0 0 122 64"><path fill="#8e8f99" d="M42.758 43.908c.178.199.274.448.269.704.009.167-.024.333-.096.487s-.182.291-.321.402a1.95 1.95 0 0 1-1.21.325h-2.127v-4.46h2.084c.411-.025.819.08 1.154.296.135.101.241.23.311.374s.102.302.093.46a.968.968 0 0 1-.242.682c-.162.177-.385.3-.634.349.282.046.537.181.719.381zm-2.495-.674h.891a.91.91 0 0 0 .566-.148c.067-.055.119-.122.152-.198s.047-.157.039-.238c.006-.081-.007-.162-.04-.237s-.083-.143-.149-.199a.927.927 0 0 0-.583-.15h-.876v1.17zm1.544 1.711c.072-.056.128-.126.164-.204s.052-.164.046-.249c.005-.086-.011-.172-.048-.251s-.094-.15-.167-.206a.997.997 0 0 0-.605-.161h-.934v1.227h.946c.213.011.424-.044.598-.155zM47.017 45.825l-1.159-1.743h-.436v1.743h-.997v-4.46h1.888c.476-.03.946.106 1.314.379.264.242.423.561.449.899s-.084.674-.308.946c-.233.24-.551.4-.9.453l1.234 1.782h-1.084zm-1.595-2.351h.816c.566 0 .849-.225.849-.675.006-.092-.01-.184-.046-.27s-.091-.165-.163-.231a.95.95 0 0 0-.641-.181h-.825l.01 1.357zM52.467 44.927H50.48l-.351.898h-1.045l1.825-4.41h1.13l1.818 4.41h-1.045l-.344-.898zm-.266-.675-.726-1.883-.726 1.883h1.452zM59.29 45.825h-.99l-2.219-3.033v3.033h-.987v-4.46h.987l2.219 3.05v-3.05h.99v4.46zM64.938 44.757a2.043 2.043 0 0 1-.895.786 3.193 3.193 0 0 1-1.392.281h-1.762v-4.46h1.762c.482-.011.959.083 1.392.275.379.172.691.443.895.778.204.363.31.764.31 1.17s-.106.807-.31 1.17zm-1.132-.106c.282-.296.438-.674.438-1.064s-.155-.768-.438-1.064a1.843 1.843 0 0 0-1.239-.379h-.687v2.887h.687c.452.026.898-.111 1.239-.379zM53.087 16.558S65.863 20.9 65.592 27.184v10.628s-12.766-4.344-12.5-10.628l-.005-10.626zM76.974 35.323c2.413-1.495 5.204-2.421 8.117-2.693v-3.327c-3.357 1.165-6.204 3.277-8.117 6.02z"/><path fill="#8e8f99" d="M75.524 36.326c1.975-3.58 5.399-6.343 9.567-7.719V19.02s-18.195 6.186-17.81 15.134v15.132s.811-.277 2.086-.795c0-.484 0-.972.058-1.462.376-4.154 2.57-8.004 6.099-10.702z"/><path fill="#8e8f99" d="M73.793 41.947a14.24 14.24 0 0 1 .637-3.098c-2.197 2.33-3.528 5.222-3.805 8.268-.027.288-.041.575-.048.872a55.24 55.24 0 0 0 3.5-1.66 14.13 14.13 0 0 1-.284-4.382zM74.517 42.001a13.526 13.526 0 0 0 .225 3.968c4.971-2.678 10.556-6.815 10.341-11.815v-.436c-3.551.358-6.874 1.755-9.458 3.978a13.715 13.715 0 0 0-1.108 4.305z"/></svg><svg width="122" height="64" x="1280" y="208" viewBox="0 0 122 64"><path fill="#8e8f99" d="M62.203 31.595a2.152 2.152 0 0 1-.441-1.449v-2.1c0-.644.146-1.133.438-1.468s.794-.501 1.505-.5c.669 0 1.143.142 1.424.427.306.363.455.808.421 1.256v.494h-1.196v-.5a2.505 2.505 0 0 0-.035-.489.472.472 0 0 0-.171-.291.693.693 0 0 0-.433-.113.73.73 0 0 0-.456.12.559.559 0 0 0-.198.32c-.034.171-.05.345-.047.519v2.549c-.019.246.034.492.154.716.059.076.142.136.239.174s.203.052.309.04a.658.658 0 0 0 .424-.115.514.514 0 0 0 .178-.31c.028-.169.04-.34.037-.511v-.517h1.196v.472c.034.467-.112.931-.413 1.32-.275.312-.743.468-1.431.468s-1.208-.167-1.503-.513zM67.183 31.616c-.302-.327-.453-.803-.453-1.434v-2.209c0-.624.151-1.096.453-1.417s.807-.48 1.515-.479c.703 0 1.206.16 1.508.479.302.32.456.793.456 1.417v2.209c0 .624-.153 1.103-.461 1.432s-.807.494-1.503.494-1.211-.167-1.515-.491zm2.072-.529c.108-.205.157-.429.144-.654v-2.705c.014-.22-.035-.44-.141-.641-.061-.077-.145-.138-.244-.176s-.208-.051-.315-.038c-.107-.013-.217 0-.316.038s-.184.099-.246.176c-.109.2-.158.42-.144.641v2.718c-.015.225.034.449.144.654.07.069.156.124.252.162s.201.057.307.057.211-.02.307-.057a.733.733 0 0 0 .252-.162v-.013zM72.1 26.143h1.287l.969 4.076.99-4.076h1.253l.127 5.884h-.927l-.099-4.089-.956 4.089h-.743l-.991-4.104-.092 4.104h-.936l.116-5.884zM78.169 26.143h2.006c1.156 0 1.733.557 1.733 1.671 0 1.067-.608 1.6-1.825 1.598h-.684v2.615h-1.238l.007-5.884zm1.714 2.514c.122.013.247.004.364-.028s.225-.086.316-.157a.95.95 0 0 0 .178-.664 1.818 1.818 0 0 0-.059-.534c-.018-.059-.049-.113-.092-.161s-.095-.088-.156-.119a1.289 1.289 0 0 0-.552-.094h-.481v1.758h.481zM83.694 26.143h1.329l1.364 5.884h-1.154l-.27-1.357h-1.186l-.277 1.357h-1.171l1.364-5.884zm1.136 3.845-.463-2.47-.463 2.47h.926zM87.489 26.143h.867l1.659 3.357v-3.357h1.028v5.884h-.825l-1.669-3.504v3.504h-1.062l.002-5.884zM93.449 29.783l-1.379-3.632h1.161l.841 2.333.79-2.333h1.137l-1.362 3.632v2.243h-1.188v-2.243zM64.115 34.599v.308h-1.01v2.391h-.423v-2.391h-1.015v-.308h2.449zM67.282 37.298h-.327a.142.142 0 0 1-.092-.026.142.142 0 0 1-.055-.062l-.292-.641h-1.401l-.292.641a.175.175 0 0 1-.045.073.153.153 0 0 1-.092.026h-.327l1.238-2.699h.431l1.253 2.688zm-2.051-1.002H66.4l-.495-1.098a1.98 1.98 0 0 1-.092-.254l-.047.143-.045.113-.49 1.096zM69.416 37.033c.078.004.155.004.233 0 .067-.006.133-.017.198-.032.061-.013.12-.029.178-.049.055-.019.109-.043.166-.066v-.607h-.495c-.012.001-.024-.001-.036-.005s-.022-.009-.031-.017c-.008-.006-.015-.014-.019-.022s-.006-.018-.006-.027v-.207h.961v1.034a1.87 1.87 0 0 1-.523.22 2.3 2.3 0 0 1-.309.056 3.97 3.97 0 0 1-.362.017 1.88 1.88 0 0 1-.624-.1 1.512 1.512 0 0 1-.495-.282 1.3 1.3 0 0 1-.319-.427 1.347 1.347 0 0 1-.114-.56 1.398 1.398 0 0 1 .111-.564c.071-.16.18-.305.319-.427.141-.121.31-.217.495-.28a2.06 2.06 0 0 1 .664-.1c.115 0 .23.008.344.023.101.014.199.037.295.068.087.028.17.064.248.107.076.042.148.089.215.141l-.119.167c-.009.015-.023.028-.04.037s-.036.014-.056.014a.17.17 0 0 1-.077-.021 1.33 1.33 0 0 1-.121-.064 1.071 1.071 0 0 0-.166-.073 1.47 1.47 0 0 0-.542-.083 1.454 1.454 0 0 0-.478.075 1.052 1.052 0 0 0-.364.214.927.927 0 0 0-.23.336 1.258 1.258 0 0 0 0 .9.962.962 0 0 0 .248.34c.102.093.225.165.362.214.157.047.324.065.49.053zM73.363 36.99h1.352v.308H72.95v-2.699h.423l-.01 2.391zM76.121 37.298h-.423v-2.699h.423v2.699zM77.697 34.612a.195.195 0 0 1 .064.049l1.81 2.034a.513.513 0 0 1 0-.096v-2.011h.369v2.709h-.213a.207.207 0 0 1-.092-.015.258.258 0 0 1-.067-.051l-1.807-2.032v2.098h-.354v-2.699h.22c.024 0 .048.004.07.013zM83.057 34.599v.297h-1.501v.891h1.216v.286h-1.216v.921h1.501v.297H81.12v-2.692h1.937zM38.687 17.934l18.801 4.607v16.142l-18.801-4.604V17.935zm-1.206-1.376v18.305l21.211 5.198V21.759l-21.211-5.201z"/><path fill="#8e8f99" d="m48.849 48.558-21.213-5.203V25.052l21.213 5.201v18.305z"/><path fill="#8e8f99" d="m37.833 17.726 18.556 4.549-7.891 6.811-18.559-4.551 7.894-6.809zm-.352-1.168-9.845 8.495 21.213 5.2 9.843-8.495-21.211-5.201zM50.043 47.528l8.649-7.465-8.649-2.122v9.587z"/></svg><svg width="24" height="24" y="336" viewBox="0 0 24 24"><path fill="#e7e9fc" d="M24 12c0 6.627-5.373 12-12 12S0 18.627 0 12 5.373 0 12 0s12 5.373 12 12z"/><path fill="none" stroke="#000" d="M23.5 12c0 6.351-5.149 11.5-11.5 11.5S.5 18.351.5 12 5.649.5 12 .5 23.5 5.649 23.5 12z"/><path fill="#2e2f42" d="M16 8.806 15.194 8 12 11.194 8.806 8 8 8.806 11.194 12 8 15.194l.806.806L12 12.806 15.194 16l.806-.806L12.806 12 16 8.806z"/></svg><svg width="24" height="24" x="88" y="336" viewBox="0 0 24 24"><path fill="#fff" d="M24 2 0 13.25l7.67 2.367L19.5 6.375l-8.998 10.116.007.002-.009-.002V22l4.301-4.182L20.25 19.5 24 2z"/></svg><svg width="24" height="24" x="176" y="336" viewBox="0 0 24 24"><path fill="#4d5ae5" d="M12 12c2.21 0 4-1.79 4-4s-1.79-4-4-4-4 1.79-4 4 1.79 4 4 4zm0 2c-2.67 0-8 1.34-8 4v1c0 .55.45 1 1 1h14c.55 0 1-.45 1-1v-1c0-2.66-5.33-4-8-4z"/></svg><svg width="18" height="24" x="264" y="336" viewBox="0 0 18 24"><path d="m14.726 13.865-1.838-.21a1.44 1.44 0 0 0-1.187.412l-1.332 1.332A10.888 10.888 0 0 1 5.6 10.63l1.339-1.339c.311-.311.463-.745.413-1.187l-.21-1.824a1.448 1.448 0 0 0-1.44-1.281H4.45c-.818 0-1.498.68-1.447 1.498.384 6.18 5.326 11.116 11.499 11.499.818.051 1.498-.63 1.498-1.447v-1.252a1.435 1.435 0 0 0-1.274-1.433z"/></svg><svg width="18" height="24" x="352" y="336" viewBox="0 0 18 24"><path d="M15 6H3c-.825 0-1.493.675-1.493 1.5l-.008 9c0 .825.675 1.5 1.5 1.5h12c.825 0 1.5-.675 1.5-1.5v-9c0-.825-.675-1.5-1.5-1.5zm-.3 3.188-5.303 3.315a.758.758 0 0 1-.795 0L3.299 9.188a.637.637 0 1 1 .675-1.08l5.025 3.143 5.025-3.143a.637.637 0 1 1 .675 1.08z"/></svg></svg>